HIERARCHY
ROOT pelvis
{
	OFFSET 0.000000 0.000000 0.000000
	CHANNELS 6 Xposition Yposition Zposition Zrotation Xrotation Yrotation
	JOINT lfemur
	{
		OFFSET 11.446000 0.000000 0.000000
		CHANNELS 3 Zrotation Xrotation Yrotation
		JOINT ltibia
		{
			OFFSET 0.000000 -42.030400 0.000000
			CHANNELS 3 Zrotation Xrotation Yrotation
			JOINT lfoot
			{
				OFFSET 0.000000 -39.930200 0.000000
				CHANNELS 3 Zrotation Xrotation Yrotation
				JOINT ltoes
				{
					OFFSET 0.000000 0.000000 11.775800
					CHANNELS 3 Zrotation Xrotation Yrotation
					End Site
					{
					    OFFSET 0.000000 0.000000 5.000000
					}
				}
			}
		}
	}
	JOINT rfemur
	{
		OFFSET -11.446000 0.000000 0.000000
		CHANNELS 3 Zrotation Xrotation Yrotation
		JOINT rtibia
		{
			OFFSET 0.000000 -42.030400 0.000000
			CHANNELS 3 Zrotation Xrotation Yrotation
			JOINT rfoot
			{
				OFFSET 0.000000 -39.930200 0.000000
				CHANNELS 3 Zrotation Xrotation Yrotation
				JOINT rtoes
				{
					OFFSET 0.000000 0.000000 11.775800
					CHANNELS 3 Zrotation Xrotation Yrotation
					End Site
					{
					    OFFSET 0.000000 0.000000 5.000000
					}
				}
			}
		}
	}
	JOINT thorax
	{
		OFFSET 0.000000 11.255600 -5.000000
		CHANNELS 3 Zrotation Xrotation Yrotation
		JOINT head
		{
			OFFSET 0.000000 43.799300 0.000000
			CHANNELS 3 Zrotation Xrotation Yrotation
			End Site
			{
			    OFFSET 0.000000 5.000000 0.000000
			}
		}
		JOINT lclavicle
		{
			OFFSET 0.000000 39.863000 0.000000
			CHANNELS 3 Zrotation Xrotation Yrotation
			JOINT lhumerus
			{
				OFFSET 17.380600 4.958300 0.000000
				CHANNELS 3 Zrotation Xrotation Yrotation
				JOINT lradius
				{
					OFFSET 0.000000 -27.561300 0.000000
					CHANNELS 3 Zrotation Xrotation Yrotation
					JOINT lhand
					{
						OFFSET 0.000000 -26.933000 0.000000
						CHANNELS 3 Zrotation Xrotation Yrotation
						End Site
						{
						    OFFSET 0.000000 -5.000000 0.000000
						}
					}
				}
			}
		}
		JOINT rclavicle
		{
			OFFSET 0.000000 39.863000 0.000000
			CHANNELS 3 Zrotation Xrotation Yrotation
			JOINT rhumerus
			{
				OFFSET -17.380600 4.958300 0.000000
				CHANNELS 3 Zrotation Xrotation Yrotation
				JOINT rradius
				{
					OFFSET 0.000000 -27.561300 0.000000
					CHANNELS 3 Zrotation Xrotation Yrotation
					JOINT rhand
					{
						OFFSET 0.000000 -26.933000 0.000000
						CHANNELS 3 Zrotation Xrotation Yrotation
						End Site
						{
						    OFFSET 0.000000 -5.000000 0.000000
						}
					}
				}
			}
		}
	}
}
MOTION
Frames:	18
Frame Time:	0.0333333
-73.652700 74.219900 9.871800 -0.710995 -5.102711 -102.642212 -5.697410 -30.866252 0.315722 -0.000000 80.257847 -0.000000 0.000000 -8.411181 11.242965 -0.000000 -1.395090 0.000000 10.864167 -44.944985 7.189248 -0.000000 28.171276 -0.000000 -0.000000 28.046987 4.141396 0.000000 -29.516208 0.000000 -11.570866 35.090167 -22.574941 9.506453 38.129691 30.337753 -6.268242 0.000000 -14.122823 33.871878 -23.579246 34.880392 -0.000000 -18.613725 -47.491639 34.012995 2.885742 -0.000000 -1.954752 0.000000 -10.606288 -90.399236 19.260617 -83.802695 -0.000000 -40.635807 -2.428128 -31.635381 7.309807 -0.000000 
-77.871600 75.044800 10.682500 0.258917 -5.778746 -106.608077 -4.718132 -33.046231 -0.435351 -0.000000 76.034050 0.000000 -0.000000 -9.568402 11.890531 -0.000000 -1.429259 0.000000 12.020954 -46.132580 7.900222 0.000000 32.467786 -0.000000 -0.000000 24.566674 5.863305 -0.000000 -29.515729 -0.000000 -13.539621 33.062345 -18.501651 10.020222 40.078418 26.732817 -10.054126 -0.000000 -15.220952 31.871496 -8.904408 41.769586 -0.000001 -17.644064 -43.178194 37.121192 3.759855 -0.000000 -6.154863 0.000000 -11.024443 -94.477555 10.326811 -83.897818 0.000001 -54.919287 -8.131762 -25.113878 5.113373 -0.000000 
-82.350700 76.471000 11.592500 -0.298178 -7.115819 -111.641361 -4.334427 -32.311862 0.541914 -0.000000 68.518102 -0.000000 0.000000 -10.914918 11.901139 -0.000000 -1.453247 0.000000 12.594686 -45.073062 10.637460 -0.000000 35.760703 -0.000000 -0.000000 21.299329 6.566527 0.000000 -29.513547 0.000000 -16.513948 32.134771 -13.274306 10.788911 41.188250 23.293563 -14.844583 0.000000 -11.858934 32.908354 1.156046 47.689024 -0.000000 -15.697233 -37.994239 34.886222 4.702085 -0.000000 -6.132204 -0.000000 -12.034539 -104.553110 -6.340789 -88.083270 -0.000000 -64.530569 -4.104251 -22.561971 4.248237 -0.000000 
-85.581400 78.322400 12.480900 0.829966 -7.342602 -111.963208 -4.763598 -33.196944 -2.705412 -0.000000 59.782418 0.000000 0.000000 -8.590851 14.036181 0.000000 -1.500121 -0.000000 11.632995 -43.228151 12.319145 -0.000000 34.173346 -0.000000 -0.000000 20.036669 5.464935 -0.000000 -29.518902 -0.000000 -15.681533 31.927022 -12.187828 11.845156 41.682655 20.315794 -17.715729 -0.000000 -7.686888 36.645736 8.147227 51.513475 0.000000 -11.764075 -32.745258 27.349506 5.327563 -0.000000 -1.368866 -0.000000 -14.461760 -122.858615 -28.518021 -96.598240 0.000002 -65.469950 9.583526 -22.356094 4.160099 0.000000 
-88.566900 80.463400 13.403400 2.645042 -7.798060 -111.533797 -4.951489 -35.817341 -4.002835 -0.000000 56.940372 0.000000 -0.000000 -2.039329 12.853536 -0.000000 -1.581877 0.000000 10.231812 -41.917122 13.455610 -0.000000 31.608817 0.000000 -0.000000 20.781750 4.551605 -0.000000 -29.520654 0.000000 -13.918928 30.335378 -9.905601 13.916994 40.744798 14.967263 -17.776578 -0.000000 -5.239776 38.469936 14.659580 51.561796 0.000000 -7.751968 -33.011995 20.870001 4.908046 -0.000000 -1.107004 0.000000 -13.008859 -137.223503 -45.777834 -103.640757 0.000000 -59.229755 18.987578 -20.228866 3.436559 0.000000 
-91.069500 82.479700 14.355900 4.199241 -8.309090 -111.012402 -4.424280 -38.508661 -3.070054 0.000000 53.167689 -0.000000 -0.000000 4.008909 9.398421 0.000000 -1.572655 -0.000000 7.761020 -40.057190 12.092842 -0.000000 27.535871 -0.000000 0.000000 21.744212 4.814083 0.000000 -29.524499 -0.000000 -12.502604 28.597794 -6.556656 16.436120 38.729064 9.804146 -16.805703 0.000000 -1.942954 40.619265 19.082667 54.368784 -0.000000 -6.140426 -30.081401 21.864077 5.781704 0.000000 -2.452614 0.000000 -12.062874 -157.257177 -63.780388 -129.493163 -0.000001 -44.125667 20.347343 -12.970418 0.966470 -0.000000 
-93.144600 84.345700 15.177200 6.418160 -8.826440 -109.806653 -3.816670 -39.895141 -3.364248 -0.000000 42.668347 0.000000 0.000000 3.991866 8.115282 0.000000 -1.543600 0.000000 5.452873 -39.025152 10.068636 -0.000000 23.567504 -0.000000 -0.000000 23.750557 5.068248 -0.000000 -29.528160 -0.000000 -11.199172 26.659663 -2.183547 20.498593 35.167002 3.371740 -14.881287 -0.000000 0.421451 43.912979 21.479052 64.047020 0.000000 -5.529626 -33.301575 21.725557 5.606551 -0.000000 -3.882487 0.000000 -6.381543 -167.240559 -75.042956 -152.691758 -0.000001 -27.492074 32.096971 -17.079741 2.355000 -0.000000 
-95.100800 85.935800 15.896300 9.169407 -9.168359 -107.661993 -4.285678 -41.457908 -6.424923 -0.000000 33.109588 -0.000000 0.000000 12.655174 9.991101 -0.000000 -1.520058 0.000000 3.363439 -38.688978 8.534160 -0.000000 20.137576 -0.000000 0.000000 25.310458 4.523926 -0.000000 -29.530517 -0.000000 -8.973956 25.185762 2.348007 22.999371 29.957916 -2.851748 -13.603903 0.000000 2.367861 49.142689 20.855886 67.542180 -0.000000 -5.821686 -33.274969 22.497785 5.234232 -0.000000 -4.088755 0.000000 1.913322 -117.582008 -81.639871 -117.080155 -0.000000 -20.207333 38.815931 -15.334580 1.774880 -0.000000 
-97.258000 86.949900 16.521000 11.465848 -8.809685 -105.198289 -4.065922 -43.083353 -5.472439 0.000000 28.932015 -0.000000 0.000000 27.120690 5.094866 -0.000000 -1.633224 -0.000000 1.906204 -38.651376 7.150560 -0.000000 19.112098 -0.000000 0.000000 24.861934 3.204539 0.000000 -29.535199 -0.000000 -6.570936 24.310532 7.097574 24.913756 24.671715 -8.669001 -11.471706 0.000000 4.460262 53.731601 17.490592 71.502343 0.000000 -7.073936 -34.326909 23.781141 5.227201 -0.000000 0.316370 -0.000000 9.870073 -67.328176 -69.300190 -56.751169 -0.000000 -19.073055 37.023384 -12.472320 0.811318 -0.000000 
-99.579000 87.351000 17.070600 12.909422 -7.133240 -102.894846 -3.755970 -41.811051 -7.160551 0.000000 26.615113 -0.000000 -0.000000 28.240774 3.128579 -0.000000 -1.659012 -0.000000 1.409046 -38.843214 5.000953 0.000000 21.034248 -0.000000 0.000000 22.794057 2.913186 0.000000 -29.541524 0.000000 -3.296347 23.771902 10.725338 25.498168 21.745017 -13.079973 -10.988669 -0.000000 6.514678 59.477809 13.766559 72.685098 -0.000000 -9.466241 -36.063250 23.249557 4.586922 0.000000 5.930392 0.000000 18.218326 -57.170615 -49.058487 -38.132811 0.000000 -22.789126 34.815170 -14.023534 1.338610 -0.000000 
-101.814000 87.266300 17.679700 14.141907 -5.382453 -101.414128 -2.925135 -40.597104 -5.996709 -0.000000 25.338554 0.000000 0.000000 23.454784 1.921739 -0.000000 -1.604130 -0.000000 1.522588 -39.545076 5.718236 0.000000 24.127105 -0.000000 0.000000 19.184662 3.169687 -0.000000 -29.548586 -0.000000 -0.810173 23.611875 12.457671 24.968018 20.213794 -14.448957 -10.657282 -0.000000 8.572895 63.918426 11.843436 69.864527 -0.000001 -13.086642 -37.583569 22.975954 3.104316 0.000000 11.474643 0.000000 25.273414 -52.224103 -31.578206 -36.196563 -0.000000 -24.150744 35.307288 -13.060431 1.012665 0.000000 
-103.615900 87.162400 18.002400 15.219394 -4.528641 -99.067869 -3.337582 -40.648098 -2.928150 0.000000 25.249265 -0.000000 -0.000000 20.271987 -0.010263 -0.000000 -1.519629 0.000000 0.959054 -40.753612 7.693055 0.000000 27.637825 -0.000000 0.000000 15.152981 2.893169 -0.000000 -29.545345 0.000000 -0.161201 24.289188 11.699006 24.548683 18.968411 -13.747914 -9.649085 0.000000 9.386040 66.427692 12.273060 69.542852 0.000000 -18.084438 -39.435304 24.360211 1.805109 -0.000000 16.645171 0.000000 28.210029 -48.175596 -20.481314 -34.033372 0.000000 -22.603939 35.027615 -11.273466 0.408256 0.000000 
-105.177800 87.423400 18.083800 16.430944 -3.826776 -95.672391 -4.711622 -41.588913 -2.821368 -0.000000 26.031004 -0.000000 -0.000000 20.350119 -2.152102 -0.000000 -1.490165 -0.000000 -0.154593 -41.644467 8.142524 -0.000000 30.178306 0.000000 -0.000000 12.574290 1.948667 -0.000000 -29.541619 0.000000 0.066945 25.234230 9.688157 24.946654 18.092209 -12.816126 -8.575520 0.000000 8.382321 67.359762 14.095503 70.210357 0.000000 -23.658010 -40.410586 26.350619 1.307934 0.000000 20.550466 -0.000001 27.706096 -44.338823 -13.437089 -30.946483 0.000001 -20.649804 36.998029 -10.057754 -0.005423 0.000000 
-106.569500 87.938100 18.039400 17.458082 -2.607889 -92.198798 -6.205301 -42.019282 -5.241042 -0.000000 26.106547 -0.000000 -0.000000 21.493093 -2.937639 -0.000000 -1.514349 0.000000 -0.966850 -41.782663 7.046307 0.000000 31.186339 -0.000000 0.000000 11.071383 0.783605 0.000000 -29.540721 0.000000 1.059867 26.157963 7.722876 25.631943 18.134447 -13.145002 -7.819840 -0.000000 6.921020 66.705168 14.591154 71.497590 -0.000000 -30.011617 -37.418003 28.774031 1.588962 -0.000000 24.671907 0.000001 27.464196 -42.907637 -5.004881 -28.429599 -0.000001 -20.202692 35.600785 -10.887843 0.274890 -0.000000 
-107.796300 88.574000 17.948000 18.364224 -1.349981 -89.606884 -6.873837 -41.538489 -7.246844 0.000000 24.636147 0.000000 -0.000000 22.343383 -3.532886 -0.000000 -1.512789 -0.000000 -1.233623 -41.029257 6.694370 -0.000000 29.252009 -0.000000 -0.000000 10.249563 -0.141562 -0.000000 -29.540305 -0.000000 2.151084 26.598480 6.446505 26.172082 19.126043 -13.860576 -7.604454 -0.000000 7.045390 64.326111 11.513419 72.615952 -0.000001 -39.616422 -32.566043 32.276580 2.805450 -0.000000 29.089461 0.000000 26.737928 -43.307323 2.924439 -27.610019 -0.000000 -19.853580 31.857962 -11.507287 0.483987 0.000000 
-108.662000 89.192200 17.847600 19.281647 -0.322673 -87.616564 -7.646827 -41.521750 -9.313783 -0.000000 23.691617 -0.000000 0.000000 23.934562 -3.165595 -0.000000 -1.541160 -0.000000 -1.343051 -40.365161 7.806373 -0.000000 25.821604 0.000000 -0.000000 11.058564 -1.526312 0.000000 -29.534055 -0.000000 2.867396 26.543228 5.533444 26.560404 20.043005 -14.355209 -6.513016 0.000000 6.904505 59.817682 7.788701 72.498611 -0.000004 -50.575493 -32.966743 36.657903 3.140676 0.000000 31.444130 0.000002 24.295077 -42.670525 7.572622 -28.495824 -0.000001 -18.774111 33.090289 -12.782575 0.915856 -0.000000 
-109.424700 89.619000 17.767700 19.840373 0.540037 -85.278821 -8.838817 -41.154989 -11.410358 -0.000000 22.596407 -0.000000 -0.000000 24.973045 -2.991636 0.000000 -1.518178 -0.000000 -2.153213 -39.843769 8.092825 0.000000 23.090130 -0.000000 -0.000000 15.943241 -0.912876 -0.000000 -29.540981 0.000000 3.687186 26.669288 3.858733 26.498387 20.810121 -14.594228 -5.594916 -0.000000 5.554522 55.537735 4.113606 72.402715 0.000004 -61.737925 -35.414161 41.355618 2.964129 0.000000 32.624609 0.000001 21.622112 -41.932242 10.837390 -27.288068 -0.000000 -18.062413 32.747854 -13.061540 1.010540 -0.000000 
-110.091600 89.729100 17.765000 19.868619 1.041902 -82.355393 -10.770396 -39.904932 -14.685513 -0.000000 21.022078 -0.000000 -0.000000 25.530901 -2.354953 -0.000000 -1.505207 0.000000 -3.901969 -39.500758 6.004117 -0.000000 22.093016 -0.000000 -0.000000 20.530524 0.662521 -0.000000 -29.562759 -0.000000 4.512234 27.036971 1.283270 26.347361 21.433565 -14.446976 -5.122052 0.000000 3.942575 52.445889 -0.503725 71.272012 0.000011 -72.814745 -38.169885 42.687413 3.064822 -0.000000 33.035043 -0.000002 19.533772 -40.932031 13.323514 -25.657827 -0.000001 -17.007453 33.047079 -11.426255 0.455982 0.000000 
